<svg xmlns="http://www.w3.org/2000/svg" width="512" height="512" fill="none"><style>@media (prefers-color-scheme:dark){.part{fill:#fff}}</style><path fill="#0f172a" d="M133.853 55.565c11.617 0 21.619 8.2 23.898 19.591 5.906 29.53 23.703 58.266 47.317 77.53 32.135 26.215 50.639 59.484 50.639 96.626 0 67.247-54.465 123.072-121.854 123.072S12 316.559 12 249.312c0-36.703 18.086-70.586 50.82-96.773 23.57-18.856 41.198-47.695 47.136-77.383 2.278-11.391 12.28-19.59 23.897-19.59m.076 88.837c-10.93 17.649-24.755 33.473-40.66 46.198-23.319 18.655-32.528 39.363-32.528 58.712 0 40.959 33.27 74.33 73.112 74.33 39.843 0 73.112-33.371 73.112-74.33 0-19.399-9.278-39.744-32.708-58.858-15.632-12.752-29.389-28.487-40.328-46.052" class="part"/><path fill="#0f172a" d="M304.549 0c11.579.048 21.526 8.237 23.797 19.591 11.015 55.076 44.36 108.599 88.809 144.159 53.104 42.483 82.242 95.265 82.259 153.018A194.485 194.485 0 0 1 379.833 497a194.48 194.48 0 0 1-212.258-41.807c-9.528-9.507-9.546-24.937-.039-34.465s24.937-9.546 34.465-.039a145.735 145.735 0 0 0 159.061 31.329 145.73 145.73 0 0 0 89.61-135.099v-.1c0-39.71-19.602-79.518-63.965-115.009-34.067-27.253-62.66-63.183-82.294-103.098a292 292 0 0 1-14.4 25.835c-7.141 11.409-22.179 14.87-33.588 7.729s-14.869-22.179-7.729-33.588a243 243 0 0 0 31.895-79.294C282.955 8.06 292.969-.047 304.549 0" class="part"/></svg>